<?xml version="1.0" encoding="utf-8"?>
<!DOCTYPE svg PUBLIC "-//W3C//DTD SVG 1.1//EN" "http://www.w3.org/Graphics/SVG/1.1/DTD/svg11.dtd">
<svg style="width:18px;height:18px;" version="1.1" id="图形" xmlns="http://www.w3.org/2000/svg" xmlns:xlink="http://www.w3.org/1999/xlink" x="0px" y="0px" width="1024px" height="1024px" viewBox="0 0 1024 1024" enable-background="new 0 0 1024 1024" xml:space="preserve">
  <path class="svgpath" data-index="path_0" fill="#e0e0e0" d="M925.14304 337.842176c-23.518208-54.13376-55.506944-101.680128-96.075776-142.369792-40.569856-40.691712-87.872512-72.680448-142.006272-96.089088C632.927232 75.999232 574.808064 64.3072 512.823296 64.3072c-61.983744 0-120.225792 11.692032-174.736384 35.076096-54.509568 23.40864-101.93408 55.397376-142.503936 96.089088-40.569856 40.689664-72.557568 88.236032-96.075776 142.369792-23.518208 54.279168-35.221504 112.277504-35.221504 173.993984 0 61.74208 11.70432 119.862272 35.221504 174.359552 23.518208 54.643712 55.50592 102.309888 96.075776 143.0016 40.569856 40.690688 87.994368 72.680448 142.503936 96.088064 54.509568 23.384064 112.751616 35.099648 174.736384 35.099648 61.984768 0 120.103936-11.715584 174.237696-35.099648 54.132736-23.407616 101.436416-55.397376 142.006272-96.088064 40.568832-40.691712 72.557568-88.357888 96.075776-143.0016 23.518208-54.498304 35.221504-112.618496 35.221504-174.359552C960.365568 450.11968 948.661248 392.121344 925.14304 337.842176M743.90528 655.90784c24.295424 24.307712 24.295424 63.710208 0 87.994368-12.166144 12.153856-28.08832 18.231296-44.010496 18.231296s-31.854592-6.07744-43.99616-18.231296L512.325632 600.34048 368.751616 743.902208c-12.141568 12.153856-28.06272 18.231296-43.99616 18.231296-15.922176 0-31.844352-6.07744-44.010496-18.231296-24.296448-24.28416-24.296448-63.685632 0-87.994368l143.574016-143.560704L280.745984 368.760832c-24.296448-24.283136-24.296448-63.685632 0-87.994368 24.32-24.306688 63.710208-24.306688 88.005632 0L512.325632 424.328192l143.574016-143.560704c24.306688-24.306688 63.69792-24.306688 88.005632 0 24.295424 24.307712 24.295424 63.711232 0 87.994368L600.331264 512.347136 743.90528 655.90784z" />

</svg>
